# xmcd
#
# Track frame offsets: 
#        150
#        13242
#        27412
#        41599
#        53831
#        67765
#        82435
#        96823
#        111701
#        125118
#        137672
#        149393
#        162603
#        176641
#        191434
#        205870
#        221256
#        234875
#        247006
#        257734
#        275483
#
# Disc length: 3831 seconds
#
# Revision: 0
# Processed by: cddbd v1.5.2PL0 Copyright (c) Steve Scherf et al.
# Submitted via: ExactAudioCopy v1.0b3
#
DISCID=420ef515
DTITLE=Bunnie Mills - A Simple Country Girl
DYEAR=1999
DGENRE=Country
TTITLE0=Mountain Boy
TTITLE1=Heart, Don't Let Me Down
TTITLE2=Nashville Lights
TTITLE3=Are You Foolin' Me, Cowboy
TTITLE4=Country From The Heart
TTITLE5=So Lonely Is The Night
TTITLE6=The Man Who Moaned The Blues
TTITLE7=Life Is A Sad Song
TTITLE8=Country Music Harmony (You Are My Sunshine)
TTITLE9=Please Don't Love Me Anymore
TTITLE10=Sad Side Of Happy
TTITLE11=Passion Has No Conscience
TTITLE12=A Poor Man's Roses
TTITLE13=Take A Minute
TTITLE14=Where Are You Spending Your Nights These Days
TTITLE15=A Simple Country Girl
TTITLE16=Walking On The Backside Of The Blues
TTITLE17=How Can You Unlove A Lover
TTITLE18=Crazy In Love
TTITLE19=Hanksville Farm And Ole Hank, Too
TTITLE20=Take Some Time Out For Love
EXTD=
EXTT0=
EXTT1=
EXTT2=
EXTT3=
EXTT4=
EXTT5=
EXTT6=
EXTT7=
EXTT8=
EXTT9=
EXTT10=
EXTT11=
EXTT12=
EXTT13=
EXTT14=
EXTT15=
EXTT16=
EXTT17=
EXTT18=
EXTT19=
EXTT20=
PLAYORDER=
